# xmcd
#
# Track frame offsets:
#	150
#	15462
#	30225
#	47892
#	62366
#	76310
#	95675
#	111284
#	122893
#	138211
#
# Disc length: 2055 seconds
# Revision: 0
# Processed by: cddbd v1.5.2PL0 Copyright (c) Steve Scherf et al.
# Submitted via: dBpowerAMP V12.0
#
DISCID=7708050a
DTITLE=Spuyten Duyvil - Temptation
DYEAR=2013
DGENRE=Americana
TTITLE0=I'll Fly Away
TTITLE1=Here and Hereafter
TTITLE2=Honey on My Grave
TTITLE3=The Window
TTITLE4=Temptation
TTITLE5=Bitter
TTITLE6=Old Abram
TTITLE7=Scratch
TTITLE8=Honey Whiskey
TTITLE9=Everything I Am
EXTD=
EXTT0=
EXTT1=
EXTT2=
EXTT3=
EXTT4=
EXTT5=
EXTT6=
EXTT7=
EXTT8=
EXTT9=
PLAYORDER=
